<?xml version="1.0" standalone="no"?>
<!DOCTYPE svg PUBLIC "-//W3C//DTD SVG 20010904//EN"
 "http://www.w3.org/TR/2001/REC-SVG-20010904/DTD/svg10.dtd">
<svg version="1.0" xmlns="http://www.w3.org/2000/svg"
 width="512.000000pt" height="512.000000pt" viewBox="0 0 512.000000 512.000000"
 preserveAspectRatio="xMidYMid meet">
<metadata>
Created by potrace 1.14, written by Peter Selinger 2001-2017
</metadata>
<g transform="translate(0.000000,512.000000) scale(0.100000,-0.100000)"
fill="#000000" stroke="none">
<path d="M780 4543 c-97 -33 -166 -101 -199 -194 -8 -22 -18 -27 -57 -33 -83
-11 -163 -79 -192 -163 -15 -44 -8 -141 12 -180 28 -52 87 -102 140 -118 40
-12 121 -15 401 -15 393 0 415 3 478 67 139 138 75 366 -114 405 -55 11 -58
13 -80 62 -28 63 -89 124 -154 155 -63 31 -169 37 -235 14z"/>
<path d="M3881 4464 c-71 -19 -159 -66 -205 -111 -33 -33 -42 -36 -86 -34 -89
4 -222 -56 -282 -127 -18 -21 -36 -30 -71 -35 -103 -14 -200 -86 -247 -182
-34 -72 -35 -200 -1 -267 48 -95 125 -156 221 -178 40 -8 220 -11 665 -8 l610
3 49 24 c63 31 126 94 156 156 20 40 24 66 25 130 0 47 -6 94 -14 115 -38 93
-113 165 -200 192 -38 12 -46 20 -77 78 -57 108 -145 186 -259 230 -75 28
-206 35 -284 14z"/>
<path d="M1913 3900 c-51 -31 -72 -90 -53 -149 31 -96 270 -933 270 -945 0 -3
-253 -6 -562 -6 l-563 1 -140 247 c-76 136 -154 261 -172 279 l-34 32 -132 -2
c-146 -2 -176 -13 -197 -71 -6 -17 -10 -127 -10 -267 0 -155 -4 -239 -10 -239
-24 0 -81 -48 -112 -95 -31 -47 -33 -55 -33 -140 0 -83 2 -94 31 -140 50 -81
88 -98 360 -161 131 -31 250 -58 264 -60 14 -3 45 -10 70 -15 25 -6 56 -13 70
-15 14 -3 45 -10 70 -15 25 -6 52 -12 60 -14 26 -6 164 -34 190 -39 14 -2 95
-18 180 -35 85 -17 169 -33 185 -36 17 -2 41 -7 55 -10 21 -4 82 -15 295 -51
16 -3 31 -7 34 -10 4 -4 -125 -338 -170 -441 -11 -23 -19 -45 -19 -48 0 -4 -7
-21 -15 -38 -53 -116 -285 -716 -285 -740 0 -41 28 -84 67 -102 28 -13 67 -16
229 -13 l196 3 37 41 c20 23 58 75 86 115 27 41 54 79 60 85 5 7 57 80 114
163 l105 151 230 1 c127 1 241 0 253 -1 25 -2 81 25 105 51 59 61 84 169 60
265 -8 31 -18 62 -23 68 -41 52 -99 97 -124 96 -3 0 -39 0 -81 0 -63 0 -75 3
-70 15 3 8 38 62 78 119 l73 105 125 -7 c257 -14 854 -6 978 13 17 3 44 7 60
9 323 51 596 154 725 275 62 57 89 111 93 181 12 208 -268 376 -781 469 -97
17 -157 20 -503 21 -298 0 -397 3 -406 13 -6 6 -53 62 -105 122 -52 61 -106
124 -120 140 -15 17 -78 91 -141 165 -63 74 -117 137 -120 140 -3 3 -32 37
-65 75 -33 39 -62 72 -65 75 -3 3 -15 17 -25 31 -11 14 -45 54 -77 90 -31 35
-89 102 -128 149 -101 119 -103 120 -285 120 -131 0 -154 -3 -182 -20z"/>
<path d="M917 1910 c-51 -13 -130 -54 -169 -89 -26 -22 -46 -29 -93 -34 -75
-7 -137 -34 -195 -87 -27 -24 -55 -40 -70 -40 -38 0 -121 -43 -157 -81 -83
-87 -98 -220 -38 -324 27 -47 61 -78 118 -108 41 -22 49 -22 544 -25 326 -2
516 1 541 8 51 13 115 57 147 100 89 121 62 294 -60 382 -22 16 -53 32 -68 35
-21 4 -34 18 -52 53 -36 71 -114 146 -189 181 -70 33 -189 46 -259 29z"/>
<path d="M3825 1347 c-89 -31 -159 -95 -197 -179 -16 -36 -27 -48 -43 -48 -38
0 -109 -30 -143 -60 -101 -92 -107 -237 -15 -340 70 -78 83 -80 493 -80 432 0
452 5 525 119 53 85 40 211 -30 283 -45 45 -82 65 -141 74 -37 5 -47 11 -55
33 -29 79 -87 144 -164 180 -57 27 -179 37 -230 18z"/>
</g>
</svg>
